<?xml version="1.0" encoding="UTF-8" standalone="no"?>
<!-- Uploaded to: SVG Repo, www.svgrepo.com, Generator: SVG Repo Mixer Tools -->

<svg
   height="800px"
   width="800px"
   version="1.1"
   id="Capa_1"
   viewBox="0 0 30.143 30.143"
   xml:space="preserve"
   sodipodi:docname="power-button-svgrepo-com.svg"
   inkscape:version="1.4 (86a8ad7, 2024-10-11)"
   xmlns:inkscape="http://www.inkscape.org/namespaces/inkscape"
   xmlns:sodipodi="http://sodipodi.sourceforge.net/DTD/sodipodi-0.dtd"
   xmlns="http://www.w3.org/2000/svg"
   xmlns:svg="http://www.w3.org/2000/svg"><defs
   id="defs2" /><sodipodi:namedview
   id="namedview2"
   pagecolor="#ffffff"
   bordercolor="#000000"
   borderopacity="0.25"
   inkscape:showpageshadow="2"
   inkscape:pageopacity="0.0"
   inkscape:pagecheckerboard="0"
   inkscape:deskcolor="#d1d1d1"
   inkscape:zoom="1.04125"
   inkscape:cx="399.51981"
   inkscape:cy="400"
   inkscape:window-width="1920"
   inkscape:window-height="1051"
   inkscape:window-x="-9"
   inkscape:window-y="-9"
   inkscape:window-maximized="1"
   inkscape:current-layer="Capa_1" />
<g
   id="g2">
	<path
   style="fill:#030104;"
   d="M20.034,2.357v3.824c3.482,1.798,5.869,5.427,5.869,9.619c0,5.98-4.848,10.83-10.828,10.83   c-5.982,0-10.832-4.85-10.832-10.83c0-3.844,2.012-7.215,5.029-9.136V2.689C4.245,4.918,0.731,9.945,0.731,15.801   c0,7.921,6.42,14.342,14.34,14.342c7.924,0,14.342-6.421,14.342-14.342C29.412,9.624,25.501,4.379,20.034,2.357z"
   id="path1" />
	<path
   style="fill:#030104;"
   d="M14.795,17.652c1.576,0,1.736-0.931,1.736-2.076V2.08c0-1.148-0.16-2.08-1.736-2.08   c-1.57,0-1.732,0.932-1.732,2.08v13.496C13.062,16.722,13.225,17.652,14.795,17.652z"
   id="path2" />
</g>
<path
   style="fill:#ffffff;stroke:#c0c0c0;stroke-width:0.960384"
   d="M 382.71309,798.93083 C 311.81113,796.14702 240.16509,771.74253 181.9928,730.56036 63.504845,646.67865 3.3917311,507.03005 24.074805,363.70155 38.25618,265.42818 92.587584,174.80847 173.34934,114.72556 193.31821,99.869669 217.22273,85.382417 236.62747,76.376063 l 9.23087,-4.284342 v 52.165319 52.16533 l -7.92317,5.27349 c -20.32955,13.53092 -46.90886,38.06445 -62.62541,57.80523 -31.91691,40.08922 -52.35805,86.96287 -60.14824,137.92614 -2.51297,16.43981 -3.50404,50.43096 -1.94621,66.75044 7.85677,82.30591 47.37009,154.32485 111.79341,203.7602 38.19769,29.31107 83.71791,48.63076 132.25044,56.12977 16.28454,2.5162 52.95631,3.52405 69.4886,1.90976 56.95826,-5.56167 109.71273,-26.96252 154.28465,-62.58848 41.73953,-33.36205 76.09276,-83.21595 92.66364,-134.47479 9.17513,-28.38154 12.9198,-50.8654 13.6609,-82.02337 0.58728,-24.691 -0.33286,-37.72453 -4.16978,-59.06363 -13.10421,-72.87935 -54.05445,-137.67731 -115.16604,-182.23395 -7.58566,-5.53073 -31.08458,-19.94689 -34.04669,-20.88703 -1.88971,-0.59977 -1.92162,-1.44586 -1.92162,-50.96535 0,-27.695493 0.18316,-50.355446 0.407,-50.355446 1.6504,0 28.76743,12.152687 40.88952,18.324923 49.50361,25.205873 95.85972,64.150713 129.96709,109.188343 42.7227,56.41387 68.33171,122.5324 75.20659,194.17175 1.87443,19.53248 1.31244,62.56118 -1.04168,79.75556 -4.04984,29.57989 -9.50478,53.01167 -18.29245,78.57541 -28.16647,81.93767 -84.92082,152.96892 -158.94879,198.93333 -65.34635,40.57394 -138.80706,59.68695 -217.52701,56.59616 z"
   id="path3"
   transform="scale(0.03767875)" /><path
   style="fill:#ffffff;stroke:#c0c0c0;stroke-width:0.960384"
   d="m 375.5102,466.0174 c -15.39299,-4.1535 -22.61031,-12.12282 -26.73695,-29.5228 -1.4582,-6.1485 -1.59438,-23.33338 -1.59438,-201.20048 0,-154.974066 0.25215,-195.809445 1.24133,-201.033546 1.89436,-10.00453 4.67407,-16.402106 9.42027,-21.681028 7.55932,-8.4077824 18.15838,-11.88263748 35.85105,-11.75360919 19.93372,0.14537171 32.2755,6.02433039 38.41437,18.29853419 5.66665,11.330006 5.34909,-1.47464 5.34909,215.689459 v 199.7599 l -2.1511,6.83962 c -3.98153,12.65967 -11.26722,20.37503 -22.67392,24.01108 -7.57293,2.41399 -29.0966,2.75776 -37.11976,0.59287 z"
   id="path4"
   transform="scale(0.03767875)" /><path
   style="fill:#ffffff;stroke:#c0c0c0;stroke-width:0.960384"
   d="m 381.27251,466.13864 c -17.64363,-2.29125 -28.95072,-13.72437 -31.69179,-32.045 -1.20859,-8.07793 -1.89517,-207.12179 -1.07001,-310.20408 l 0.73418,-91.716691 2.20122,-6.075863 C 355.33849,15.35312 363.27773,7.2688084 372.91153,4.2393539 379.5511,2.1514678 397.541,1.3789972 405.84566,2.8251914 c 13.34723,2.3243202 22.98313,9.7029936 27.41209,20.9907686 2.14175,5.458523 2.15068,5.726641 2.83679,85.18764 0.37855,43.84154 0.73147,134.66036 0.78426,201.8196 0.0934,118.87545 0.046,122.26929 -1.79376,128.21129 -3.999,12.9161 -11.93383,21.84003 -22.43493,25.2315 -4.912,1.5864 -24.55466,2.75869 -31.3776,1.87265 z"
   id="path5"
   transform="scale(0.03767875)" /><path
   style="fill:#ffffff;stroke:#c0c0c0;stroke-width:0.960384"
   d="m 378.43486,464.73723 c -10.71799,-2.101 -20.07643,-9.59427 -24.7605,-19.82562 -1.96666,-4.29575 -2.61256,-7.67831 -3.24136,-16.97493 -0.93729,-13.85771 -1.18282,-364.894691 -0.26875,-384.239201 0.55829,-11.815127 0.95689,-14.162696 3.2874,-19.361408 3.27453,-7.304516 9.45353,-14.152385 15.56405,-17.2488179 7.46837,-3.7845091 25.09759,-5.3178736 36.62988,-3.1860142 11.63208,2.1503063 20.56438,8.3758981 25.35077,17.6688491 2.29145,4.448937 2.55122,6.199946 3.2115,21.647199 1.17621,27.517083 2.13067,378.727293 1.05367,387.709933 -1.68717,14.07155 -8.81983,25.63054 -18.84122,30.53355 -7.24095,3.54267 -27.64787,5.30288 -37.98544,3.27646 z"
   id="path6"
   transform="scale(0.03767875)" /><path
   style="fill:#ffffff;stroke:#c0c0c0;stroke-width:0.960384"
   d="m 434.38143,174.78992 c 0,-2.90517 0.18004,-4.09364 0.40009,-2.64106 0.22004,1.45258 0.22004,3.82953 0,5.28211 -0.22005,1.45258 -0.40009,0.26411 -0.40009,-2.64105 z"
   id="path7"
   transform="scale(0.03767875)" /><path
   style="fill:#ffffff;stroke:#c0c0c0;stroke-width:0.960384"
   d="m 434.31645,174.78992 c 0,-1.84874 0.19764,-2.60505 0.4392,-1.68068 0.24157,0.92437 0.24157,2.43698 0,3.36135 -0.24156,0.92437 -0.4392,0.16807 -0.4392,-1.68067 z"
   id="path8"
   transform="scale(0.03767875)" /><path
   style="fill:#ffffff;stroke:#c0c0c0;stroke-width:0.960384"
   d="m 434.31645,174.78992 c 0,-1.84874 0.19764,-2.60505 0.4392,-1.68068 0.24157,0.92437 0.24157,2.43698 0,3.36135 -0.24156,0.92437 -0.4392,0.16807 -0.4392,-1.68067 z"
   id="path9"
   transform="scale(0.03767875)" /><path
   style="fill:#ffffff;stroke:#c0c0c0;stroke-width:0.960384"
   d="m 246.30662,124.36975 c -1.5e-4,-29.051623 0.12191,-41.075015 0.27123,-26.718652 0.14933,14.356362 0.14945,38.125872 2.7e-4,52.821132 -0.14918,14.69525 -0.27135,2.94914 -0.2715,-26.10248 z"
   id="path10"
   transform="scale(0.03767875)" /><path
   style="fill:#ffffff;stroke:#c0c0c0;stroke-width:0.960384"
   d="M 372.62905,797.45464 C 327.44302,793.19052 298.06536,786.39602 260.28648,771.47193 171.88362,736.54943 99.043866,668.35263 57.682645,581.78249 40.474298,545.76496 29.587182,508.46023 23.829997,465.78631 c -1.817492,-13.47177 -2.14105,-20.30764 -2.159225,-45.61824 -0.02291,-31.90451 1.0056,-44.44117 5.79107,-70.58824 C 48.405239,235.14836 125.1412,133.59055 230.71949,80.574209 c 7.25587,-3.643546 13.41433,-6.624629 13.68548,-6.624629 0.27114,0 0.49299,22.869186 0.49299,50.82041 v 50.82042 l -7.92317,5.52719 c -23.27186,16.23442 -51.76909,43.40693 -67.05513,63.93799 -26.95487,36.20376 -44.20793,74.44564 -52.76971,116.96547 -4.2417,21.06531 -5.09593,30.78854 -5.15065,58.6272 -0.0542,27.54505 1.05041,38.03464 6.62001,62.8677 24.77287,110.45423 112.86203,196.24008 224.81642,218.93801 18.24494,3.69903 30.62472,4.72182 58.00485,4.79221 27.20547,0.0699 36.5922,-0.84025 59.54381,-5.77365 115.15401,-24.75212 204.70593,-118.32104 223.75789,-233.79492 3.03775,-18.41186 4.47267,-50.54778 3.10008,-69.42833 -5.76213,-79.2604 -42.25052,-149.57484 -105.05228,-202.43949 -9.08375,-7.64643 -29.21669,-21.31899 -40.85114,-27.74256 -4.68136,-2.58467 -8.04299,-5.09376 -8.36354,-6.2425 -0.29478,-1.05642 -0.54187,-23.40498 -0.54909,-49.66345 l -0.0131,-47.74269 7.92316,3.386066 c 51.50878,22.012915 90.64326,48.061644 127.52318,84.882104 54.42939,54.34161 90.9464,124.19005 104.59572,200.06694 4.53349,25.20181 5.238,34.33767 5.19861,67.41437 -0.0419,35.14222 -0.86109,44.22411 -6.58401,72.98919 -13.77731,69.24884 -45.82253,131.69936 -94.72496,184.60229 -31.72144,34.31645 -68.88426,61.66145 -112.71922,82.94066 -42.45702,20.61029 -85.93699,32.38701 -134.266,36.36646 -11.12506,0.91604 -49.01738,1.17247 -57.33064,0.38797 z"
   id="path11"
   transform="scale(0.03767875)" /></svg>
